<svg width="28" height="28" fill="none" xmlns="http://www.w3.org/2000/svg"><path fill-rule="evenodd" clip-rule="evenodd" d="M28 14c0 7.732-6.268 14-14 14S0 21.732 0 14 6.268 0 14 0s14 6.268 14 14Z" fill="#D52B1E"/><path fill-rule="evenodd" clip-rule="evenodd" d="M10.889 19.134c-1.618-1.151-3.143-2.396-4.636-3.703a47.438 47.438 0 0 0-1.462 3.672c2.364 1.99 5.506 4.293 7.684 5.6 2.8-7.28 7.187-12.01 11.387-15.338a10.592 10.592 0 0 0-2.147-3.05A38.153 38.153 0 0 0 10.89 19.135Z" fill="#fff"/></svg>
